# WaveFront *.obj file (generated by Autodesk ATF)

mtllib e0838c90-1a7c-4b0a-8cb6-979e51f7a467.mtl

g Body1

v 134.500000 4.500000 1.000000
v 4.500000 4.500000 1.000000
v 4.500000 36.500000 1.000000
v 134.500000 36.500000 1.000000
v -0.000000 0.000000 1.000000
v 139.000000 0.000000 1.000000
v 139.000000 39.000000 1.000000
v 138.931852 39.517638 1.000000
v 138.732051 40.000000 1.000000
v 138.414214 40.414214 1.000000
v 138.000000 40.732051 1.000000
v 137.517638 40.931852 1.000000
v 137.000000 41.000000 1.000000
v 2.000000 41.000000 1.000000
v 1.482362 40.931852 1.000000
v 1.000000 40.732051 1.000000
v 0.585786 40.414214 1.000000
v 0.267949 40.000000 1.000000
v 0.068148 39.517638 1.000000
v 0.000000 39.000000 1.000000
v 139.000000 0.000000 0.000000
v 139.000000 39.000000 0.000000
v -0.000000 0.000000 0.000000
v 0.000000 39.000000 0.000000
v 0.068148 39.517638 0.000000
v 0.267949 40.000000 0.000000
v 0.585786 40.414214 0.000000
v 1.000000 40.732051 0.000000
v 1.482362 40.931852 0.000000
v 2.000000 41.000000 0.000000
v 137.000000 41.000000 0.000000
v 137.517638 40.931852 0.000000
v 138.000000 40.732051 0.000000
v 138.414214 40.414214 0.000000
v 138.732051 40.000000 0.000000
v 138.931852 39.517638 0.000000
v 134.500000 8.500000 10.000000
v 130.500000 8.500000 10.000000
v 130.500000 4.500000 10.000000
v 134.500000 4.500000 10.000000
v 8.500000 8.500000 10.000000
v 4.500000 8.500000 10.000000
v 4.500000 4.500000 10.000000
v 8.500000 4.500000 10.000000
v 8.500000 32.500000 10.000000
v 8.500000 36.500000 10.000000
v 4.500000 36.500000 10.000000
v 4.500000 32.500000 10.000000
v 130.500000 36.500000 10.000000
v 130.500000 32.500000 10.000000
v 134.500000 32.500000 10.000000
v 134.500000 36.500000 10.000000
v 130.500000 8.500000 3.000000
v 130.500000 4.500000 3.000000
v 134.500000 8.500000 3.000000
v 130.500000 32.500000 3.000000
v 134.500000 32.500000 3.000000
v 130.500000 36.500000 3.000000
v 8.500000 32.500000 3.000000
v 8.500000 36.500000 3.000000
v 4.500000 32.500000 3.000000
v 8.500000 8.500000 3.000000
v 4.500000 8.500000 3.000000
v 8.500000 4.500000 3.000000
vt -6.500000 -1.600000 0.000000
vt 6.950000 -2.050000 0.000000
vt 6.500000 -1.600000 0.000000
vt 6.950000 1.850000 0.000000
vt 6.500000 1.600000 0.000000
vt 6.943185 1.901764 0.000000
vt 6.750000 2.050000 0.000000
vt 6.923205 1.950000 0.000000
vt 6.891421 1.991421 0.000000
vt -6.500000 1.600000 0.000000
vt -6.950000 1.850000 0.000000
vt -6.950000 -2.050000 0.000000
vt -6.750000 2.050000 0.000000
vt -6.943185 1.901764 0.000000
vt 6.850000 2.023205 0.000000
vt 6.801764 2.043185 0.000000
vt -6.801764 2.043185 0.000000
vt -6.850000 2.023205 0.000000
vt -6.891421 1.991421 0.000000
vt -6.923205 1.950000 0.000000
vt 0.000000 0.000000 0.000000
vt 3.900000 0.000000 0.000000
vt 0.000000 0.100000 0.000000
vt 3.900000 0.100000 0.000000
vt -6.950000 -2.050000 0.000000
vt 6.950000 -2.050000 0.000000
vt -6.950000 1.850000 0.000000
vt 6.950000 1.850000 0.000000
vt -6.750000 2.050000 0.000000
vt 6.750000 2.050000 0.000000
vt 6.943185 1.901764 0.000000
vt 6.923205 1.950000 0.000000
vt 6.891421 1.991421 0.000000
vt 6.850000 2.023205 0.000000
vt 6.801764 2.043185 0.000000
vt -6.801764 2.043185 0.000000
vt -6.850000 2.023205 0.000000
vt -6.891421 1.991421 0.000000
vt -6.923205 1.950000 0.000000
vt -6.943185 1.901764 0.000000
vt -0.100000 -0.000000 0.000000
vt -0.000000 -0.000000 0.000000
vt -0.100000 13.900000 0.000000
vt -0.000000 13.900000 0.000000
vt 6.500000 -1.200000 0.000000
vt 6.100000 -1.200000 0.000000
vt 6.500000 -1.600000 0.000000
vt 6.100000 -1.600000 0.000000
vt -6.100000 -1.200000 0.000000
vt -6.500000 -1.200000 0.000000
vt -6.100000 -1.600000 0.000000
vt -6.500000 -1.600000 0.000000
vt -6.100000 1.600000 0.000000
vt -6.500000 1.600000 0.000000
vt -6.100000 1.200000 0.000000
vt -6.500000 1.200000 0.000000
vt 6.100000 1.200000 0.000000
vt 6.500000 1.200000 0.000000
vt 6.100000 1.600000 0.000000
vt 6.500000 1.600000 0.000000
vt -0.000000 0.100000 0.000000
vt -0.400000 0.100000 0.000000
vt 0.000000 -0.600000 0.000000
vt -0.400000 -0.600000 0.000000
vt -0.000000 0.100000 0.000000
vt -0.400000 0.100000 0.000000
vt 0.000000 -0.600000 0.000000
vt -0.400000 -0.600000 0.000000
vt -0.000000 0.100000 0.000000
vt -0.400000 0.100000 0.000000
vt -0.000000 -0.600000 0.000000
vt -0.400000 -0.600000 0.000000
vt -0.000000 0.100000 0.000000
vt -0.400000 0.100000 0.000000
vt -0.000000 -0.600000 0.000000
vt -0.400000 -0.600000 0.000000
vt -0.000000 0.100000 0.000000
vt -0.400000 0.100000 0.000000
vt -0.000000 -0.600000 0.000000
vt -0.400000 -0.600000 0.000000
vt -0.000000 0.100000 0.000000
vt -0.400000 0.100000 0.000000
vt -0.000000 -0.600000 0.000000
vt -0.400000 -0.600000 0.000000
vt -0.000000 0.100000 0.000000
vt -0.400000 0.100000 0.000000
vt -0.000000 -0.600000 0.000000
vt -0.400000 -0.600000 0.000000
vt -0.000000 0.100000 0.000000
vt -0.400000 0.100000 0.000000
vt -0.000000 -0.600000 0.000000
vt -0.400000 -0.600000 0.000000
vt -6.100000 -1.600000 0.000000
vt 6.100000 -1.600000 0.000000
vt -6.100000 -1.200000 0.000000
vt 6.100000 -1.200000 0.000000
vt -6.100000 1.200000 0.000000
vt 6.100000 1.200000 0.000000
vt -6.100000 1.600000 0.000000
vt 6.100000 1.600000 0.000000
vt 6.500000 -1.200000 0.000000
vt 6.500000 1.200000 0.000000
vt -6.500000 1.200000 0.000000
vt -6.500000 -1.200000 0.000000
vt 2.800000 0.900000 0.000000
vt 2.800000 0.200000 0.000000
vt 3.200000 0.900000 0.000000
vt 3.200000 0.000000 0.000000
vt 0.400000 0.200000 0.000000
vt 0.000000 0.000000 0.000000
vt 0.000000 0.900000 0.000000
vt 0.400000 0.900000 0.000000
vt 12.600000 0.900000 0.000000
vt 12.600000 0.200000 0.000000
vt 13.000000 0.900000 0.000000
vt 13.000000 0.000000 0.000000
vt 0.400000 0.200000 0.000000
vt 0.000000 0.000000 0.000000
vt 0.000000 0.900000 0.000000
vt 0.400000 0.900000 0.000000
vt -0.000000 0.157080 0.000000
vt -0.100000 0.157080 0.000000
vt -0.000000 0.104720 0.000000
vt -0.100000 0.104720 0.000000
vt -0.000000 0.052360 0.000000
vt -0.100000 0.052360 0.000000
vt -0.000000 0.000000 0.000000
vt -0.100000 0.000000 0.000000
vt -0.000000 -0.052360 0.000000
vt -0.100000 -0.052360 0.000000
vt -0.000000 -0.104720 0.000000
vt -0.100000 -0.104720 0.000000
vt -0.000000 -0.157080 0.000000
vt -0.100000 -0.157080 0.000000
vt 0.200000 0.000000 0.000000
vt 13.700000 0.000000 0.000000
vt 0.200000 0.100000 0.000000
vt 13.700000 0.100000 0.000000
vt -0.000000 0.157080 0.000000
vt -0.100000 0.157080 0.000000
vt -0.000000 0.104720 0.000000
vt -0.100000 0.104720 0.000000
vt -0.000000 0.052360 0.000000
vt -0.100000 0.052360 0.000000
vt -0.000000 -0.000000 0.000000
vt -0.100000 -0.000000 0.000000
vt -0.000000 -0.052360 0.000000
vt -0.100000 -0.052360 0.000000
vt -0.000000 -0.104720 0.000000
vt -0.100000 -0.104720 0.000000
vt -0.000000 -0.157080 0.000000
vt -0.100000 -0.157080 0.000000
vt 4.100000 0.100000 0.000000
vt 0.200000 0.100000 0.000000
vt 4.100000 0.000000 0.000000
vt 0.200000 0.000000 0.000000
vt 0.400000 0.900000 0.000000
vt 0.000000 0.900000 0.000000
vt 0.400000 0.200000 0.000000
vt 0.000000 0.000000 0.000000
vt 3.200000 0.000000 0.000000
vt 2.800000 0.200000 0.000000
vt 3.200000 0.900000 0.000000
vt 2.800000 0.900000 0.000000
vt 0.400000 0.900000 0.000000
vt 0.000000 0.900000 0.000000
vt 0.400000 0.200000 0.000000
vt 0.000000 0.000000 0.000000
vt 13.000000 0.000000 0.000000
vt 12.600000 0.200000 0.000000
vt 13.000000 0.900000 0.000000
vt 12.600000 0.900000 0.000000
vn 0.000000 0.000000 0.100000
vn 0.000000 0.000000 0.100000
vn 0.000000 0.000000 0.100000
vn 0.000000 0.000000 0.100000
vn 0.000000 0.000000 0.100000
vn 0.000000 0.000000 0.100000
vn 0.000000 0.000000 0.100000
vn 0.000000 0.000000 0.100000
vn 0.000000 0.000000 0.100000
vn 0.000000 0.000000 0.100000
vn 0.000000 0.000000 0.100000
vn 0.000000 0.000000 0.100000
vn 0.000000 0.000000 0.100000
vn 0.000000 0.000000 0.100000
vn 0.000000 0.000000 0.100000
vn 0.000000 0.000000 0.100000
vn 0.000000 0.000000 0.100000
vn 0.000000 0.000000 0.100000
vn 0.000000 0.000000 0.100000
vn 0.000000 0.000000 0.100000
vn 0.100000 0.000000 0.000000
vn 0.100000 0.000000 0.000000
vn 0.100000 0.000000 0.000000
vn 0.100000 0.000000 0.000000
vn 0.000000 0.000000 -0.100000
vn 0.000000 0.000000 -0.100000
vn 0.000000 0.000000 -0.100000
vn 0.000000 0.000000 -0.100000
vn 0.000000 0.000000 -0.100000
vn 0.000000 0.000000 -0.100000
vn 0.000000 0.000000 -0.100000
vn 0.000000 0.000000 -0.100000
vn 0.000000 0.000000 -0.100000
vn 0.000000 0.000000 -0.100000
vn 0.000000 0.000000 -0.100000
vn 0.000000 0.000000 -0.100000
vn 0.000000 0.000000 -0.100000
vn 0.000000 0.000000 -0.100000
vn 0.000000 0.000000 -0.100000
vn 0.000000 0.000000 -0.100000
vn 0.000000 -0.100000 0.000000
vn 0.000000 -0.100000 0.000000
vn 0.000000 -0.100000 0.000000
vn 0.000000 -0.100000 0.000000
vn 0.000000 0.000000 0.100000
vn 0.000000 0.000000 0.100000
vn 0.000000 0.000000 0.100000
vn 0.000000 0.000000 0.100000
vn 0.000000 0.000000 0.100000
vn 0.000000 0.000000 0.100000
vn 0.000000 0.000000 0.100000
vn 0.000000 0.000000 0.100000
vn 0.000000 0.000000 0.100000
vn 0.000000 0.000000 0.100000
vn 0.000000 0.000000 0.100000
vn 0.000000 0.000000 0.100000
vn 0.000000 0.000000 0.100000
vn 0.000000 0.000000 0.100000
vn 0.000000 0.000000 0.100000
vn 0.000000 0.000000 0.100000
vn -0.100000 0.000000 -0.000000
vn -0.100000 0.000000 -0.000000
vn -0.100000 0.000000 -0.000000
vn -0.100000 0.000000 -0.000000
vn -0.000000 0.100000 -0.000000
vn -0.000000 0.100000 -0.000000
vn -0.000000 0.100000 -0.000000
vn -0.000000 0.100000 -0.000000
vn 0.000000 -0.100000 0.000000
vn 0.000000 -0.100000 0.000000
vn 0.000000 -0.100000 0.000000
vn 0.000000 -0.100000 0.000000
vn -0.100000 0.000000 0.000000
vn -0.100000 0.000000 0.000000
vn -0.100000 0.000000 0.000000
vn -0.100000 0.000000 0.000000
vn 0.100000 0.000000 0.000000
vn 0.100000 0.000000 0.000000
vn 0.100000 0.000000 0.000000
vn 0.100000 0.000000 0.000000
vn 0.000000 -0.100000 0.000000
vn 0.000000 -0.100000 0.000000
vn 0.000000 -0.100000 0.000000
vn 0.000000 -0.100000 0.000000
vn 0.000000 0.100000 0.000000
vn 0.000000 0.100000 0.000000
vn 0.000000 0.100000 0.000000
vn 0.000000 0.100000 0.000000
vn 0.100000 0.000000 0.000000
vn 0.100000 0.000000 0.000000
vn 0.100000 0.000000 0.000000
vn 0.100000 0.000000 0.000000
vn 0.000000 0.000000 0.100000
vn 0.000000 0.000000 0.100000
vn 0.000000 0.000000 0.100000
vn 0.000000 0.000000 0.100000
vn 0.000000 0.000000 0.100000
vn 0.000000 0.000000 0.100000
vn 0.000000 0.000000 0.100000
vn 0.000000 0.000000 0.100000
vn 0.000000 0.000000 0.100000
vn 0.000000 0.000000 0.100000
vn 0.000000 0.000000 0.100000
vn 0.000000 0.000000 0.100000
vn 0.100000 0.000000 0.000000
vn 0.100000 0.000000 0.000000
vn 0.100000 0.000000 0.000000
vn 0.100000 0.000000 0.000000
vn 0.100000 0.000000 0.000000
vn 0.100000 0.000000 0.000000
vn 0.100000 0.000000 0.000000
vn 0.100000 0.000000 0.000000
vn 0.000000 -0.100000 0.000000
vn 0.000000 -0.100000 0.000000
vn 0.000000 -0.100000 0.000000
vn 0.000000 -0.100000 0.000000
vn 0.000000 -0.100000 0.000000
vn 0.000000 -0.100000 0.000000
vn 0.000000 -0.100000 0.000000
vn 0.000000 -0.100000 0.000000
vn 0.000000 0.100000 0.000000
vn 0.000000 0.100000 0.000000
vn 0.025882 0.096593 0.000000
vn 0.025882 0.096593 0.000000
vn 0.050000 0.086603 0.000000
vn 0.050000 0.086603 0.000000
vn 0.070711 0.070711 0.000000
vn 0.070711 0.070711 0.000000
vn 0.086603 0.050000 0.000000
vn 0.086603 0.050000 0.000000
vn 0.096593 0.025882 0.000000
vn 0.096593 0.025882 0.000000
vn 0.000000 0.100000 0.000000
vn 0.000000 0.100000 0.000000
vn -0.100000 0.000000 0.000000
vn -0.100000 0.000000 0.000000
vn -0.096593 0.025882 -0.000000
vn -0.096593 0.025882 -0.000000
vn -0.086603 0.050000 -0.000000
vn -0.086603 0.050000 -0.000000
vn -0.070711 0.070711 -0.000000
vn -0.070711 0.070711 -0.000000
vn -0.050000 0.086603 -0.000000
vn -0.050000 0.086603 -0.000000
vn -0.025882 0.096593 -0.000000
vn -0.025882 0.096593 -0.000000
vn -0.100000 0.000000 0.000000
vn -0.100000 0.000000 0.000000
vn -0.100000 0.000000 0.000000
vn -0.100000 0.000000 0.000000
vn -0.100000 0.000000 0.000000
vn -0.100000 0.000000 0.000000
vn -0.100000 0.000000 0.000000
vn -0.100000 0.000000 0.000000
vn -0.100000 0.000000 0.000000
vn -0.100000 0.000000 0.000000
vn 0.000000 0.100000 0.000000
vn 0.000000 0.100000 0.000000
vn 0.000000 0.100000 0.000000
vn 0.000000 0.100000 0.000000
vn 0.000000 0.100000 0.000000
vn 0.000000 0.100000 0.000000
vn 0.000000 0.100000 0.000000
vn 0.000000 0.100000 0.000000
usemtl Steel_-_Satin
f 2/1/1 6/2/2 1/3/3
f 1/3/3 6/2/2 7/4/4
f 1/3/3 7/4/4 4/5/5
f 4/5/5 7/4/4 8/6/6
f 4/5/5 8/6/6 13/7/7
f 13/7/7 8/6/6 9/8/8
f 13/7/7 9/8/8 10/9/9
f 3/10/10 20/11/11 2/1/1
f 2/1/1 20/11/11 5/12/12
f 2/1/1 5/12/12 6/2/2
f 4/5/5 14/13/13 3/10/10
f 3/10/10 14/13/13 19/14/14
f 3/10/10 19/14/14 20/11/11
f 10/9/9 11/15/15 13/7/7
f 13/7/7 11/15/15 12/16/16
f 13/7/7 14/13/13 4/5/5
f 15/17/17 16/18/18 14/13/13
f 14/13/13 16/18/18 17/19/19
f 14/13/13 17/19/19 18/20/20
f 18/20/20 19/14/14 14/13/13
f 21/21/21 22/22/22 6/23/23
f 6/23/23 22/22/22 7/24/24
f 21/25/25 23/26/26 22/27/27
f 22/27/27 23/26/26 24/28/28
f 22/27/27 24/28/28 31/29/29
f 31/29/29 24/28/28 30/30/30
f 30/30/30 24/28/28 25/31/31
f 30/30/30 25/31/31 26/32/32
f 26/32/32 27/33/33 30/30/30
f 30/30/30 27/33/33 28/34/34
f 30/30/30 28/34/34 29/35/35
f 32/36/36 33/37/37 31/29/29
f 31/29/29 33/37/37 34/38/38
f 31/29/29 34/38/38 35/39/39
f 35/39/39 36/40/40 31/29/29
f 31/29/29 36/40/40 22/27/27
f 5/41/41 23/42/42 6/43/43
f 6/43/43 23/42/42 21/44/44
f 37/45/45 38/46/46 40/47/47
f 40/47/47 38/46/46 39/48/48
f 41/49/49 42/50/50 44/51/51
f 44/51/51 42/50/50 43/52/52
f 46/53/53 47/54/54 45/55/55
f 45/55/55 47/54/54 48/56/56
f 50/57/57 51/58/58 49/59/59
f 49/59/59 51/58/58 52/60/60
f 53/61/61 54/62/62 38/63/63
f 38/63/63 54/62/62 39/64/64
f 55/65/65 53/66/66 37/67/67
f 37/67/67 53/66/66 38/68/68
f 56/69/69 57/70/70 50/71/71
f 50/71/71 57/70/70 51/72/72
f 58/73/73 56/74/74 49/75/75
f 49/75/75 56/74/74 50/76/76
f 59/77/77 60/78/78 45/79/79
f 45/79/79 60/78/78 46/80/80
f 61/81/81 59/82/82 48/83/83
f 48/83/83 59/82/82 45/84/84
f 62/85/85 63/86/86 41/87/87
f 41/87/87 63/86/86 42/88/88
f 64/89/89 62/90/90 44/91/91
f 44/91/91 62/90/90 41/92/92
f 64/93/93 54/94/94 62/95/95
f 62/95/95 54/94/94 53/96/96
f 62/95/95 53/96/96 59/97/97
f 59/97/97 53/96/96 56/98/98
f 59/97/97 56/98/98 60/99/99
f 60/99/99 56/98/98 58/100/100
f 53/96/96 55/101/101 56/98/98
f 56/98/98 55/101/101 57/102/102
f 59/97/97 61/103/103 62/95/95
f 62/95/95 61/103/103 63/104/104
f 51/105/105 57/106/106 52/107/107
f 52/107/107 57/106/106 4/108/108
f 4/108/108 57/106/106 55/109/109
f 4/108/108 55/109/109 1/110/110
f 1/110/110 55/109/109 40/111/111
f 40/111/111 55/109/109 37/112/112
f 39/113/113 54/114/114 40/115/115
f 40/115/115 54/114/114 1/116/116
f 1/116/116 54/114/114 64/117/117
f 1/116/116 64/117/117 2/118/118
f 2/118/118 64/117/117 43/119/119
f 43/119/119 64/117/117 44/120/120
f 31/121/121 13/122/122 32/123/123
f 32/123/123 13/122/122 12/124/124
f 32/123/123 12/124/124 33/125/125
f 33/125/125 12/124/124 11/126/126
f 33/125/125 11/126/126 34/127/127
f 34/127/127 11/126/126 10/128/128
f 34/127/127 10/128/128 35/129/129
f 35/129/129 10/128/128 9/130/130
f 35/129/129 9/130/130 36/131/131
f 36/131/131 9/130/130 8/132/132
f 36/131/131 8/132/132 22/133/22
f 22/133/22 8/132/132 7/134/24
f 31/135/121 30/136/133 13/137/122
f 13/137/122 30/136/133 14/138/134
f 24/139/135 20/140/136 25/141/137
f 25/141/137 20/140/136 19/142/138
f 25/141/137 19/142/138 26/143/139
f 26/143/139 19/142/138 18/144/140
f 26/143/139 18/144/140 27/145/141
f 27/145/141 18/144/140 17/146/142
f 27/145/141 17/146/142 28/147/143
f 28/147/143 17/146/142 16/148/144
f 28/147/143 16/148/144 29/149/145
f 29/149/145 16/148/144 15/150/146
f 29/149/145 15/150/146 30/151/133
f 30/151/133 15/150/146 14/152/134
f 5/153/147 20/154/136 23/155/148
f 23/155/148 20/154/136 24/156/135
f 48/157/149 47/158/150 61/159/151
f 61/159/151 47/158/150 3/160/152
f 61/159/151 3/160/152 2/161/153
f 61/159/151 2/161/153 63/162/154
f 63/162/154 2/161/153 43/163/155
f 63/162/154 43/163/155 42/164/156
f 49/165/157 52/166/158 58/167/159
f 58/167/159 52/166/158 4/168/160
f 58/167/159 4/168/160 3/169/161
f 58/167/159 3/169/161 60/170/162
f 60/170/162 3/169/161 47/171/163
f 60/170/162 47/171/163 46/172/164
# 64 vertices
# 172 texture params
# 164 normals
# 124 facets

# 1 groups
